<svg version="1.1" xmlns="http://www.w3.org/2000/svg" viewBox="0 0 390.2621749128681 250.24479978206568" width="390.2621749128681" height="250.24479978206568">
  <!-- svg-source:excalidraw -->
  
  <defs>
    <style>
      @font-face {
        font-family: "Virgil";
        src: url("https://excalidraw.com/Virgil.woff2");
      }
      @font-face {
        font-family: "Cascadia";
        src: url("https://excalidraw.com/Cascadia.woff2");
      }
    </style>
  </defs>
  <rect x="0" y="0" width="390.2621749128681" height="250.24479978206568" fill="#ffffff"></rect><g stroke-linecap="round"><g transform="translate(205.0554647930711 180.42308333218097) rotate(0 47.25451255770861 -84.23150129243731)"><path d="M1.15 -0.42 C16.64 -28.28, 76.79 -140.35, 91.91 -168.04 M0.3 -1.69 C16.26 -29.31, 78.53 -138.97, 94.21 -166.75" stroke="#000000" stroke-width="1" fill="none"></path></g></g><g stroke-linecap="round"><g transform="translate(250.7591119002085 238.8453159108758) rotate(0 63.62120938152077 -111.20194461196661)"><path d="M-0.52 0.57 C20.63 -36.72, 106.46 -185.91, 127.76 -222.98 M1.41 -0.17 C22.31 -37.42, 105.28 -185.24, 126.69 -221.95" stroke="#000000" stroke-width="1" fill="none"></path></g></g><g stroke-linecap="round"><g transform="translate(203.7591119002085 177.8453159108758) rotate(0 -8.931657233089197 -8.78694456259251)"><path d="M0.69 -0.64 C-2.5 -3.92, -15.32 -16.06, -18.56 -19.21 M-0.4 1.64 C-3.26 -1.53, -13.6 -14.59, -16.26 -17.99" stroke="#000000" stroke-width="1" fill="none"></path></g></g><g stroke-linecap="round"><g transform="translate(247.7591119002085 238.8453159108758) rotate(0 -37.29618384399913 0.5146349336486367)"><path d="M-1.17 0.44 C-13.66 0.34, -62.75 -0.11, -75 -0.09 M0.41 -0.37 C-11.71 -0.32, -60.12 1.59, -72.82 1.4" stroke="#000000" stroke-width="1" fill="none"></path></g></g><g stroke-linecap="round"><g transform="translate(173.7591119002085 237.8453159108758) rotate(0 -30.060271479911194 -35.6446067921305)"><path d="M1.07 0.45 C-9.05 -11.25, -50.16 -58.3, -60.16 -70.09 M0.18 -0.36 C-10.17 -12.39, -51.31 -59.75, -61.19 -71.74" stroke="#000000" stroke-width="1" fill="none"></path></g></g><g stroke-linecap="round"><g transform="translate(188.7591119002085 159.8453159108758) rotate(0 -39.272533462583056 -0.03997117264663075)"><path d="M0.88 -0.88 C-12.14 -1.17, -65.37 -1.3, -79 -1.36 M-0.12 1.28 C-13.13 1.12, -66.37 0.21, -79.42 -0.01" stroke="#000000" stroke-width="1" fill="none"></path></g></g><g stroke-linecap="round"><g transform="translate(296.7591119002085 10.845315910875797) rotate(0 40.88533949992154 -0.023577262426357493)"><path d="M-0.18 0.54 C13.55 0.3, 69.58 -0.78, 83.5 -0.85 M-1.73 -0.23 C11.78 -0.29, 68.73 1, 82.82 0.77" stroke="#000000" stroke-width="1" fill="none"></path></g></g><g stroke-linecap="round"><g transform="translate(181.7591119002085 142.8453159108758) rotate(0 -39.48550097746306 -1.1010780019033746)"><path d="M0.39 -0.5 C-12.67 -0.7, -65.04 -1.41, -78.27 -1.61 M-0.87 -1.8 C-14.11 -1.82, -66.73 -0.57, -79.36 -0.4" stroke="#000000" stroke-width="1" fill="none"></path></g></g><g stroke-linecap="round"><g transform="translate(177.7591119002085 140.8453159108758) rotate(0 -23.105081469952154 -27.24301910682115)"><path d="M0.24 -1.08 C-7.45 -10.2, -38.19 -46.49, -46.02 -55.45 M-1.1 0.97 C-8.87 -7.92, -38.74 -45.08, -46.45 -54.16" stroke="#000000" stroke-width="1" fill="none"></path></g></g><g stroke-linecap="round"><g transform="translate(102.7591119002085 141.8453159108758) rotate(0 -17.57384161892344 -25.363736201822775)"><path d="M-0.3 0.22 C-6.53 -8.43, -30.24 -42.61, -36.31 -50.95 M1.75 -0.71 C-4.68 -9.32, -30.38 -41.96, -36.9 -49.91" stroke="#000000" stroke-width="1" fill="none"></path></g></g><g stroke-linecap="round"><g transform="translate(66.7591119002085 91.8453159108758) rotate(0 34.27498625178822 -1.003630118668724)"><path d="M0.61 0.23 C11.86 0.02, 55.57 -0.2, 66.92 -0.41 M-0.52 -0.7 C11.12 -1.33, 57.6 -2.39, 69.07 -2.22" stroke="#000000" stroke-width="1" fill="none"></path></g></g><g stroke-linecap="round"><g transform="translate(126.7591119002085 71.3453159108758) rotate(0 -38.15791351420336 -0.07032201141117866)"><path d="M1.02 1.06 C-11.97 0.77, -63.66 -0.7, -76.94 -1.2 M0.1 0.56 C-13.04 0.43, -64.02 0.51, -77.34 0.24" stroke="#000000" stroke-width="1" fill="none"></path></g></g><g stroke-linecap="round"><g transform="translate(122.7591119002085 69.3453159108758) rotate(0 -23.595979469357985 -27.31381282955408)"><path d="M1.06 1.06 C-6.89 -8.39, -39.03 -46.43, -47.2 -55.69 M0.15 0.57 C-8.02 -8.22, -40.64 -44.98, -48.25 -54.51" stroke="#000000" stroke-width="1" fill="none"></path></g></g><g stroke-linecap="round"><g transform="translate(47.759111900208495 70.3453159108758) rotate(0 -18.31381282955408 -25.55909540504217)"><path d="M1.06 -0.2 C-5.39 -8.86, -31.43 -42.71, -37.69 -50.92 M0.15 -1.35 C-5.99 -9.37, -29.14 -41.5, -35.33 -49.87" stroke="#000000" stroke-width="1" fill="none"></path></g></g><g stroke-linecap="round"><g transform="translate(11.759111900208495 20.345315910875797) rotate(0 33.77378741082737 -0.3978919528145468)"><path d="M-0.2 -0.69 C10.81 -0.95, 55.63 -0.56, 67.08 -0.5 M-1.76 1.57 C9.52 1.46, 57.68 -1.71, 69.31 -2.37" stroke="#000000" stroke-width="1" fill="none"></path></g></g></svg>